<svg width="31" height="33" viewBox="0 0 31 33" fill="none" xmlns="http://www.w3.org/2000/svg">
<path d="M29.6367 26.8195C28.8644 24.9868 27.7436 23.3221 26.3368 21.9182C24.9343 20.5101 23.2729 19.3875 21.4444 18.6123C21.428 18.6041 21.4116 18.6 21.3952 18.5918C23.9459 16.7461 25.604 13.7396 25.604 10.3477C25.604 4.72852 21.0595 0.175781 15.4506 0.175781C9.84166 0.175781 5.2972 4.72852 5.2972 10.3477C5.2972 13.7396 6.95532 16.7461 9.50595 18.5959C9.48957 18.6041 9.4732 18.6082 9.45682 18.6164C7.62266 19.3916 5.97683 20.5031 4.56436 21.9223C3.15889 23.3273 2.03831 24.9918 1.26451 26.8236C0.50432 28.6171 0.0943348 30.5398 0.056743 32.4879C0.0556503 32.5317 0.0633145 32.5752 0.0792845 32.616C0.0952544 32.6567 0.119207 32.6939 0.14973 32.7252C0.180253 32.7566 0.21673 32.7815 0.257011 32.7985C0.297292 32.8155 0.340562 32.8242 0.384272 32.8242H2.84074C3.02088 32.8242 3.16417 32.6807 3.16827 32.5043C3.25015 29.3379 4.51932 26.3725 6.76289 24.1248C9.08425 21.7992 12.1671 20.5195 15.4506 20.5195C18.7341 20.5195 21.8169 21.7992 24.1383 24.1248C26.3819 26.3725 27.651 29.3379 27.7329 32.5043C27.737 32.6848 27.8803 32.8242 28.0605 32.8242H30.5169C30.5606 32.8242 30.6039 32.8155 30.6442 32.7985C30.6845 32.7815 30.7209 32.7566 30.7515 32.7252C30.782 32.6939 30.8059 32.6567 30.8219 32.616C30.8379 32.5752 30.8455 32.5317 30.8444 32.4879C30.8035 30.5273 30.3982 28.6201 29.6367 26.8195ZM15.4506 17.4023C13.5714 17.4023 11.8027 16.6682 10.4722 15.3352C9.14157 14.0021 8.40873 12.2303 8.40873 10.3477C8.40873 8.46504 9.14157 6.69316 10.4722 5.36016C11.8027 4.02715 13.5714 3.29297 15.4506 3.29297C17.3298 3.29297 19.0984 4.02715 20.429 5.36016C21.7596 6.69316 22.4925 8.46504 22.4925 10.3477C22.4925 12.2303 21.7596 14.0021 20.429 15.3352C19.0984 16.6682 17.3298 17.4023 15.4506 17.4023Z" fill="#EB891B"/>
</svg>
